<?xml version="1.0" encoding="utf-8"?>
<!-- Generator: Adobe Illustrator 19.0.0, SVG Export Plug-In . SVG Version: 6.00 Build 0)  -->
<svg version="1.1" id="Layer_1" xmlns="http://www.w3.org/2000/svg" xmlns:xlink="http://www.w3.org/1999/xlink" x="0px" y="0px"
	 viewBox="0 0 360 360" style="enable-background:new 0 0 360 360;" xml:space="preserve">
<style type="text/css">
	.st0{fill:#0D0B0E;}
	.st1{fill:#FFFFFF;}
	.st2{fill:#56BA55;}
	.st3{fill:#EE8CBA;}
	.st4{fill:#6E2F8D;}
</style>
<g id="XMLID_8_">
	<path id="XMLID_11_" class="st0" d="M156.4,50.6c12.2-2,24.6-2.6,36.9-2.2c5.4,0,10.7,0.9,16.1,0.7c8.7,2.3,17.5,3.9,26,6.9
		c12.4,4.1,24.1,10.2,35,17.3c8.6,5.9,16.4,12.9,23.5,20.5c3.4,3.7,5.9,8,8.8,12c3.3,4.8,5.3,10.8,10.6,13.9
		c4.1,2.9,8.8,4.7,13.1,7.1c3.7,2,6.8,6,6.3,10.5c0.3,3-2,5.1-4.2,6.7c-1.9,1.1-2.4,3.9-1.1,5.6c2.3,3.3,5.9,5.6,7.7,9.3
		c1.6,2.9,1.6,6.7-0.2,9.6c-1.6,2.6-2.8,5.5-3.6,8.4c-0.7,3.5-0.4,7.2,0.1,10.7c0.7,2.8,2,5.3,3.2,7.9c3,7.3,6.3,14.6,7.2,22.5v9.1
		c-0.7,7.8-6,14.1-10.8,19.8c-10.4,12-23.6,21.6-38.3,27.8c-7.6,3.7-16,5.6-23.8,8.8c-11.6,4.7-22.8,10.3-34.2,15.6
		c-11.3,4.8-23,8.6-35.1,10.7c-3.2,0.8-6.5,0.8-9.8,1.1h-9.2c-12-0.6-23.4-4.6-34.3-9.2c-7.8-3.2-15.6-6.4-23.3-10
		c-2.8-1.2-5.8-1.5-8.7-2.4c-17-3.7-33.4-10-48.9-18c-11.7-6.5-22.9-13.9-33.5-22.2c-4.5-3.3-8.1-7.6-11.3-12c-2.7-4-3.4-9-2.6-13.7
		c0.4-7.2,3.9-13.7,6.6-20.2c4.9-8.3,9.9-16.7,15.8-24.3c1.6-2.2,2.7-5,2-7.7c-0.5-3.1-3.7-4.5-4.9-7.2c-1.3-2.5-0.5-5.6,0.9-7.9
		c1.5-2.3,4.6-3.1,6-5.6c0.9-3.7-1.6-7.1-3.7-9.8c-2.2-2.4-3.5-5.8-2.9-9c0.8-4.3,4.5-7.3,8-9.5c4.3-2.6,9.6-1.4,14-3.5
		c2.2-1.2,3.8-3.2,5.2-5.3c1.9-2.8,3.8-5.7,5.5-8.6c4.3-7.6,9.1-15,15.2-21.3c6-6.7,13.3-12,20.9-16.7c4.9-3.5,10.7-5.5,16.2-7.8
		C133.7,55.1,145.1,52.7,156.4,50.6z"/>
	<g>
		<path id="XMLID_7_" class="st1" d="M116.6,102.2c3.8-2.9,8.8-4.5,13.5-3.4c5.7,1.1,10.2,5.7,12.2,11c3.1,7.4,2,16.1-1.8,23.1
			c0.8-4.3,0.9-9.1-1.9-12.7c-0.4,1.9-0.8,3.9-2.2,5.2c-1.7,2-5.3,2.2-7-0.1c-1.5-1.9-1.2-4.4-0.8-6.6c-4,3.2-6.7,8.1-6.3,13.3
			c0,3.4,1.9,6.4,4.6,8.4c-3.1,0.8-6.1,2.1-9.3,2.8c-5.1-1.7-8.8-6.2-10.5-11.2C104.1,121.4,107.9,109,116.6,102.2z"/>
		<path id="XMLID_6_" class="st1" d="M236.8,101.8c3.4-0.5,7.1-0.4,10.1,1.5c2.8,1.8,5.8,3.7,7.6,6.6c4.6,6.8,5.8,15.8,2.8,23.4
			c-2.3,6.5-8.1,12.2-15.1,13.1c-2.3,0.5-4.4-1-6.5-1.7c2.1-1.4,4.1-3,5.1-5.4c2.6-5.4,1-12.4-3.7-16.1c-0.2,1.6,0,3.5-1,4.9
			c-1.3,2.1-4.4,3-6.5,1.5c-1.9-1.1-2.3-3.4-3-5.2c-2.7,3.2-3.5,7.3-3.3,11.4c-3.4-7.6-3.4-16.8,0.7-24.1
			C226.7,106.9,231.3,102.9,236.8,101.8z"/>
	</g>
	<g>
		<g id="XMLID_51_">
			<path id="XMLID_55_" class="st2" d="M148.8,56.7c25.5-5,52.1-6,77.5,0c23.3,5.4,44.9,17.5,61.9,34.2c6.7,6.8,12.9,14.1,17.7,22.3
				c-9.2-3.6-18.6-6.8-27.5-11.2c-1.7-0.7-2.3-2.5-3.1-4c-4.8-9.3-12.8-17.2-22.7-20.9c-15.5-6.2-34.9-2-45.6,11
				c-10.8,2-21.9,2-32.9,1.6c-5.4-0.2-10.8-0.4-16-1.8c-0.7-0.3-1.2-1-1.7-1.5c-4.3-4.5-9.9-7.7-16-9.3c-6.3-1.7-12.9-2.8-19.5-1.9
				c-9.8,1.5-18.8,6.9-25.4,14.2c-3.6,4.1-6.7,8.6-9.3,13.4c-0.6,1.2-1.8,1.7-2.9,2.3c-2.9,1.4-5.6,3.1-8.6,4.4
				c4.9-9.2,11.1-17.7,18.3-25.2C108,69.3,128.2,60.7,148.8,56.7z"/>
			<path id="XMLID_52_" class="st2" d="M337.8,219.4c-0.8-5.5-2.4-10.9-4.6-16c-5.6-13-14.1-24.4-23.5-34.9
				c-0.9-1.2-2.5-1.7-3.9-2.1c-9.7-2.9-19.4-5.8-29.4-7.2c-3.8-0.3-7.5-1.3-11.4-0.8c11.1,6.2,21.7,13.3,31.6,21.4
				c-28.8-20-62.1-33.6-96.8-38.7c-13.1-1.6-26.4-2-39.5-0.7c-18.5,1.6-36.9,5.6-54.3,12.3c-11.3,4.3-22,10-31.7,17.2
				c2.7-3.9,6.4-6.9,10.1-9.8c-6.9,1-13.5,3.1-20.2,5c-2.3,0.9-5.1,1.1-6.8,3.1c-8.9,9.6-17.2,19.9-23.8,31.4
				c-3.4,6.1-6.3,12.7-7.6,19.6c-1,6-0.6,12.6,2.8,17.8c4.2,6.1,9.8,11.1,15.7,15.5c8.2,6.4,17.3,11.5,26.5,16.2
				c15.6,7.7,31.9,13.9,48.7,18c-3.2-3-6.7-5.8-9.6-9.2c7.3,3.2,14,7.6,21.2,11.2c16.9,8.6,34.7,16.8,53.9,17.6
				c14.2,0.6,27.9-3.8,40.8-9.3c11.7-5.2,22.9-11.8,33.3-19.2c2.6-1.8,4.8-4,7.6-5.5c-4,4.4-8.4,8.4-12.8,12.2
				c5.6-0.8,10.9-2.5,16.3-4.3c14.6-5.1,28.6-12,41.2-21c7.9-5.9,15.6-12.3,21-20.7C336.6,233,339.1,226.2,337.8,219.4z M302.3,222
				c-11.3,7.4-23.3,13.8-35.6,19.3c-2.5,1.1-5.2,1.9-7.1,3.9c-11.5,11.3-23.4,22.6-37.8,30.3c-10.5,5.9-22.2,9.7-34.2,11.4
				c-8.8,1-17.7-1-26-3.9c-10.4-3.8-20.1-9.4-29.2-15.5c-10.8-7.4-20.9-15.7-30.3-24.8c-1.6-1.3-3.5-2.1-5.3-3.1
				c-14.3-7.8-27.8-17-40.2-27.6c-4.4,2.1-8.5,5-12.8,7.3c1.9-2.6,4.4-4.6,6.9-6.6c6.6-5,14.1-10.1,22.7-10.4
				c-3.5,3.4-8.3,4.8-12.4,7.3c14.2,11.9,30,21.9,46.6,30.2c16.5,8.1,34.1,14.2,52.4,16.9c20.8,2.9,41.9-0.1,62.1-4.9
				c16.8-4.1,33.2-9.9,48.9-17.3c9-4.2,17.8-8.8,26-14.4c-4.1-1.7-8.4-2.9-12.7-4c10.5-2.9,21.3,2.9,28.2,10.6
				C309.1,224.9,305.7,223.4,302.3,222z"/>
		</g>
	</g>
	<path id="XMLID_2_" class="st3" d="M217.3,257.6c-9,2-18.2,3.2-27.3,4.1c0.7,1.2,1.3,2.3,2,3.4c-2.5-1.2-5-2.8-7.8-3.1
		c-10.3,0.5-20.6-0.2-30.7-2.1c-3.9,2.1-7.6,4.9-10.4,8.4c12.3,7.3,25.7,14.1,40.3,14.7c16.2-1,31.8-7.3,45.2-16.3
		C225.5,263.1,221.6,259.9,217.3,257.6z"/>
	<path id="XMLID_1_" class="st4" d="M331.4,158.4c-5-4-11.9-4.8-16.2-9.6c-2.7-2.8-3.8-6.7-4.4-10.4c3.1,4.8,7.9,8.3,12.9,10.8
		c0.5-2.1,1-4.4,2.7-5.9c1.2-1.5,3.1-2.5,4-4.2c0.1-3.9-3.3-6.9-6.5-8.5c-10.5-5.2-21.6-9.1-32.4-13.3c-4.1-1.4-8-3.3-11.9-5.3
		c0.2,1.8,0.7,3.6,1.1,5.4c-4.8-11.2-12.6-21.3-23-27.8c-7.3-4.8-16.4-6.2-25-5c-11.3,1.3-22.4,6.5-29.4,15.7
		c0.3-1.4,0.5-2.8,0.8-4.3c-14.1,3.6-29,3.6-43.2,0.4c2.7,4,5.7,8.4,10.3,10.5c-0.4-0.2-0.8-0.3-1.3-0.5l0,0c0,0-1.6-0.7-2.5-1.2
		c-5-3-8.5-7.8-12.8-11.6c-4.4-3.6-9.6-6.6-15.2-7.7c-3.4-0.6-6.9-1.5-10.4-1.8c-10.9-0.2-21,5.4-28.8,12.6
		c-7.3,6.8-13.4,14.9-18.2,23.7c0-2.2,0.3-4.4,0.8-6.5c-9.4,6-19.4,11.1-30.3,13.7c-2.1,0.4-4.1,1.4-5.4,3.2l-0.2,0.3
		c-0.4,0.7-1.2,2.4-1.3,2.7c0.9,1.2,1.1,2.7,1.8,3.9c1.4,1.9,3.6,3.2,4.4,5.5c0.6,1.8,0.8,3.7,1.1,5.6c6.5-3.9,13.5-7.8,17.9-14.2
		c-2.3,7.1-7.6,12.8-13.2,17.5c-3.9,3.3-8.7,5.1-12.6,8.4c-0.2,3.9,3.3,6.4,5.6,9.1c1.9-1.1,3.7-2.2,5.5-3.4
		c5.6-3.6,11.9-6.1,18.3-7.9c6-1.5,12.2-3,18.5-2.8c6.6-3.9,13.4-7.3,20.5-10.1c1.2-0.1,0.2-1.1-0.2-1.3c-6.2-4.2-9.7-11.8-9.6-19.2
		c-0.2-7,2.4-13.9,6.6-19.4c1.7-2.2,3.7-4,5.6-6c3.4-3.6,8.3-5.8,13.2-5.9c4-0.2,7.8,1.3,11.4,2.7c-3.1-0.3-6.1-0.5-9.2-0.3
		c2.6,0.7,5.2,1.6,7.4,3.1c6.3,4.2,9.6,11.9,9.7,19.3c0.4,6.6-2,13.1-5.6,18.5c26.5-5.1,54.1-3.6,80.1,3.7c-1.1-2.1-2.3-4.2-3.1-6.5
		c-2.9-8.1-1.8-17.4,2.8-24.6c3-4.8,7.7-8.3,13-10.1c-1.7,0-3.4-0.1-5.1-0.2c4-2.4,9-2,13.3-0.6c4.3,1.6,8.8,3.3,11.9,6.8
		c9.9,9.8,10.4,27.6,0.6,37.7c-2.5,2.8-6,4.4-9.2,6.1c4.9,2.1,9.6,4.6,14.5,6.8c1.7-1.7,4.3-0.9,6.4-1.2
		c22.3-0.2,43.7,8.4,62.5,19.9c0.3,0,0.8-0.1,1.1-0.1c1.2-3.1,3.1-6,3.4-9.4C334.5,162.4,333.4,159.9,331.4,158.4z"/>
</g>
</svg>
